<svg xmlns="http://www.w3.org/2000/svg" version="1.1" x="0" y="0" viewBox="0 0 512 512" style="enable-background:new 0 0 512 512" xml:space="preserve" class=""><g><path d="M493.714 201.143c10.099 0 18.286-8.187 18.286-18.286v-128c0-10.099-8.187-18.286-18.286-18.286h-27.429v-9.143C466.286 12.28 454.006 0 438.857 0H384c-15.148 0-27.429 12.28-27.429 27.429v9.143h-27.429c-10.099 0-18.286 8.187-18.286 18.286v98.505a119.398 119.398 0 0 1 36.571 47.781h146.287zM374.857 27.429A9.143 9.143 0 0 1 384 18.286h54.857A9.143 9.143 0 0 1 448 27.429v9.143h-73.143zm36.572 27.428c35.346 0 64 28.654 64 64s-28.654 64-64 64-64-28.654-64-64c.04-35.329 28.67-63.96 64-64zM194.743 337.765c2.731.329 5.478.503 8.229.521h47.826a54.59 54.59 0 0 1 19.511 3.657c45.513-15.594 73.607-61.238 67.028-108.896-6.58-47.658-45.991-83.982-94.026-86.661s-91.241 29.037-103.079 75.668 11.007 95.115 54.503 115.674zM237.714 256c-18.393.023-33.93-13.645-36.252-31.891s9.296-35.369 27.109-39.954v-1.298a9.143 9.143 0 0 1 18.286 0v1.298c16.098 4.156 27.366 18.648 27.429 35.273a9.143 9.143 0 0 1-18.286 0c0-10.099-8.187-18.286-18.286-18.286s-18.286 8.187-18.286 18.286 8.187 18.286 18.286 18.286c18.393-.023 33.93 13.645 36.252 31.891s-9.296 35.369-27.109 39.954v1.298a9.143 9.143 0 0 1-18.286 0v-1.298c-16.098-4.156-27.366-18.648-27.429-35.273a9.143 9.143 0 0 1 18.286 0c0 10.099 8.187 18.286 18.286 18.286S256 284.385 256 274.286 247.813 256 237.714 256z" fill="#ffffff" opacity="1" data-original="#000000" class=""></path><path d="M411.429 164.571c25.247 0 45.714-20.467 45.714-45.714s-20.467-45.714-45.714-45.714-45.714 20.467-45.714 45.714c.03 25.235 20.479 45.684 45.714 45.714zm-18.286-54.857h9.143v-9.143a9.143 9.143 0 0 1 18.286 0v9.143h9.143a9.143 9.143 0 1 1-.001 18.286h-9.143v9.143a9.143 9.143 0 0 1-18.286 0V128h-9.143a9.143 9.143 0 1 1 .001-18.286zM9.143 301.714h45.714A9.143 9.143 0 0 1 64 310.857v192A9.143 9.143 0 0 1 54.857 512H9.143A9.142 9.142 0 0 1 0 502.857v-192a9.143 9.143 0 0 1 9.143-9.143zM508.343 366.802a16.026 16.026 0 0 0-17.371-5.019l-169.143 56.402a44.976 44.976 0 0 1-14.537 2.386h-81.271a73.324 73.324 0 0 0-40.585 12.279l-6.619 4.462a9.15 9.15 0 0 1-12.699-2.496 9.15 9.15 0 0 1 2.496-12.699l6.683-4.48a91.646 91.646 0 0 1 50.725-15.351h53.211a25.876 25.876 0 0 0 2.935-27.959 36.725 36.725 0 0 0-31.351-17.755h-47.845a92.941 92.941 0 0 1-57.847-20.288A74.537 74.537 0 0 0 98.743 320H82.286v182.857h222.171a54.785 54.785 0 0 0 28.517-7.991l171.337-104.32a15.815 15.815 0 0 0 4.489-23.086c-.146-.219-.302-.429-.457-.658zM124.745 200.457a7.867 7.867 0 0 0 3.255.686 119.566 119.566 0 0 1 62.016-63.086 176.238 176.238 0 0 0 11.127-64.347V32.183a9.225 9.225 0 0 0-8.558-9.143 120.197 120.197 0 0 1-59.346-18.926 9.307 9.307 0 0 0-10.843.073A117.815 117.815 0 0 1 63.37 22.976a9.225 9.225 0 0 0-8.585 9.143l.073 41.591c-.001 43.757 12.123 101.266 69.887 126.747zm-39.78-97.207a9.143 9.143 0 0 1 12.928 0l10.834 10.834 48.53-64.713a9.143 9.143 0 1 1 14.628 10.971l-54.857 73.143a9.144 9.144 0 0 1-6.665 3.657h-.649a9.143 9.143 0 0 1-6.464-2.679l-18.286-18.286c-3.569-3.569-3.569-9.356.001-12.927z" fill="#ffffff" opacity="1" data-original="#000000" class=""></path></g></svg>