<svg xmlns="http://www.w3.org/2000/svg" version="1.1" x="0" y="0" viewBox="0 0 48 48" style="enable-background:new 0 0 512 512" xml:space="preserve"><g><path d="M16.83 31.14A9.974 9.974 0 0 0 13 39v3H7c-1.66 0-3-1.34-3-3v-2c0-3.87 3.13-7 7-7h2c1.42 0 2.73.42 3.83 1.14z" fill="#ffffff" opacity="1" data-original="#000000"></path><circle cx="36" cy="25.5" r="4.5" fill="#ffffff" opacity="1" data-original="#000000"></circle><circle cx="12" cy="25.5" r="4.5" fill="#ffffff" opacity="1" data-original="#000000"></circle><path d="M44 37v2c0 1.66-1.34 3-3 3h-6v-3c0-3.19-1.5-6.03-3.83-7.86C32.27 30.42 33.58 30 35 30h2c3.87 0 7 3.13 7 7z" fill="#ffffff" opacity="1" data-original="#000000"></path><circle cx="24" cy="25.5" r="5.5" fill="#ffffff" opacity="1" data-original="#000000"></circle><path d="M25 31h-2c-4.411 0-8 3.589-8 8v3c0 1.654 1.346 3 3 3h12c1.654 0 3-1.346 3-3v-3c0-4.411-3.589-8-8-8zM38.5 16.684l-2.413.858a1.034 1.034 0 0 1-1.38-1.003l.07-2.56-1.562-2.03a1.035 1.035 0 0 1 .527-1.623l2.457-.724 1.448-2.113a1.034 1.034 0 0 1 1.706 0l1.448 2.113 2.457.724c.697.205.97 1.047.527 1.623l-1.562 2.03.07 2.56a1.035 1.035 0 0 1-1.38 1.003zM9.5 16.684l-2.413.858a1.034 1.034 0 0 1-1.38-1.003l.07-2.56-1.562-2.03a1.035 1.035 0 0 1 .527-1.623l2.457-.724 1.448-2.113a1.034 1.034 0 0 1 1.706 0l1.448 2.113 2.457.724c.697.205.97 1.047.527 1.623l-1.562 2.03.07 2.56a1.035 1.035 0 0 1-1.38 1.003zM24 14.434l-2.861 1.017a1.226 1.226 0 0 1-1.636-1.189l.083-3.035-1.852-2.407a1.227 1.227 0 0 1 .625-1.924l2.913-.859 1.717-2.505a1.226 1.226 0 0 1 2.023 0l1.717 2.505 2.913.859a1.227 1.227 0 0 1 .625 1.924l-1.852 2.407.083 3.035a1.226 1.226 0 0 1-1.636 1.189l-2.861-1.017z" fill="#ffffff" opacity="1" data-original="#000000"></path></g></svg>