<svg xmlns="http://www.w3.org/2000/svg" version="1.1" x="0" y="0" viewBox="0 0 64 64" style="enable-background:new 0 0 512 512" xml:space="preserve" class=""><g><path d="M49 4c-1.62 0-2.41 1.26-2.99 2.18-.54.86-.82 1.24-1.29 1.24-.46 0-.75-.38-1.29-1.24C42.86 5.26 42.07 4 40.45 4c-1.63 0-2.41 1.26-2.99 2.18-.54.86-.82 1.24-1.29 1.24-.46 0-.74-.38-1.28-1.24C34.31 5.26 33.53 4 31.91 4c-1.63 0-2.41 1.26-2.99 2.18-.54.86-.82 1.24-1.28 1.24-.47 0-.75-.38-1.29-1.24C25.77 5.26 24.99 4 23.37 4c-1.63 0-2.41 1.26-2.99 2.18-.53.86-.82 1.24-1.28 1.24-.47 0-.75-.38-1.29-1.24C17.23 5.26 16.45 4 14.83 4a.997.997 0 0 0-1 1v54a.997.997 0 0 0 1 1H49a1.003 1.003 0 0 0 1-1V5a1.003 1.003 0 0 0-1-1zm-11.96 9.92a.997.997 0 0 1-1 1H20.81a1 1 0 0 1 0-2h15.23a.997.997 0 0 1 1 1zm6.4 0a1.003 1.003 0 0 1-1 1h-1.13a1 1 0 0 1 0-2h1.13a1.003 1.003 0 0 1 1 1zm-2.23 6.7a.977.977 0 0 1 .62.92v15.81h2.16a1 1 0 0 1 0 2h-6.32a1 1 0 1 1 0-2h2.16v-13.4l-1.96 1.97a1.004 1.004 0 0 1-1.42-1.42l3.67-3.67a1.002 1.002 0 0 1 1.09-.21zm-.38 24.36a1 1 0 1 1 0 2H20.81a1 1 0 0 1 0-2zm-19.38-8.63V23.54a2.996 2.996 0 0 1 3-3h5.83a3.002 3.002 0 0 1 3 3v12.81a3.002 3.002 0 0 1-3 3h-5.83a2.996 2.996 0 0 1-3-3zm-.64 13.9h13.68a1 1 0 1 1 0 2H20.81a1 1 0 0 1 0-2z" fill="#ffffff" opacity="1" data-original="#000000" class=""></path><rect width="7.83" height="14.81" x="23.45" y="22.54" rx="1" fill="#ffffff" opacity="1" data-original="#000000" class=""></rect></g></svg>